<svg width="25" height="24" viewBox="0 0 25 24" fill="none" xmlns="http://www.w3.org/2000/svg">
<g id="btnNotifications">
<g id="bell">
<path id="shape01" d="M10.9746 2.99603C10.4785 2.99603 10.0758 2.59336 10.0758 2.09721V1.19838C10.0758 0.702233 10.4785 0.299561 10.9746 0.299561C11.4708 0.299561 11.8735 0.702233 11.8735 1.19838V2.09721C11.8735 2.59336 11.4708 2.99603 10.9746 2.99603Z" fill="white"/>
<path id="shape02" d="M18.8188 10.8405C18.3226 10.8405 17.92 10.4378 17.92 9.94166C17.92 6.28884 14.9539 3.17621 11.3082 3.00364C7.6581 2.83511 4.4039 5.64618 4.0601 9.27787C4.03943 9.49494 4.02909 9.71785 4.02909 9.94166C4.02909 10.4378 3.62642 10.8405 3.13027 10.8405C2.63412 10.8405 2.23145 10.4378 2.23145 9.94166C2.23145 9.66122 2.24448 9.38079 2.27054 9.10845C2.70333 4.53523 6.80062 0.992074 11.3932 1.20824C15.9835 1.42531 19.7176 5.34328 19.7176 9.94166C19.7176 10.4383 19.3149 10.8405 18.8188 10.8405Z" fill="white"/>
<path id="shape03" d="M20.5036 16.9709C20.282 16.9709 20.0595 16.8891 19.8856 16.7251C18.6362 15.5422 17.9194 13.8767 17.9194 12.1559C17.9194 11.6598 18.3221 11.2571 18.8183 11.2571C19.3144 11.2571 19.7171 11.6598 19.7171 12.1559C19.7171 13.385 20.229 14.5751 21.1215 15.4195C21.4819 15.7606 21.4976 16.3296 21.1565 16.6905C20.9799 16.8765 20.7417 16.9709 20.5036 16.9709Z" fill="white"/>
<path id="shape04" d="M1.44491 16.9709C1.20627 16.9709 0.968532 16.877 0.791913 16.69C0.450809 16.3296 0.466538 15.7606 0.826967 15.4195C1.7195 14.5751 2.23138 13.3855 2.23138 12.1559C2.23138 11.6598 2.63405 11.2571 3.1302 11.2571C3.62636 11.2571 4.02903 11.6598 4.02903 12.1559C4.02903 13.8776 3.31222 15.5431 2.06285 16.7251C1.88848 16.8891 1.66647 16.9709 1.44491 16.9709Z" fill="white"/>
<path id="shape05" d="M10.9747 23.6689C8.5389 23.6689 6.48059 21.6106 6.48059 19.1748C6.48059 18.6787 6.88326 18.276 7.37941 18.276C7.87556 18.276 8.27824 18.6787 8.27824 19.1748C8.27824 20.6363 9.51322 21.8713 10.9747 21.8713C12.4362 21.8713 13.6712 20.6363 13.6712 19.1748C13.6712 18.6787 14.0738 18.276 14.57 18.276C15.0661 18.276 15.4688 18.6787 15.4688 19.1748C15.4688 21.6106 13.4105 23.6689 10.9747 23.6689Z" fill="white"/>
<path id="shape06" d="M2.68032 20.0737C1.5851 20.0737 0.610779 19.4041 0.19777 18.3678C-0.215689 17.3301 0.0310381 16.1728 0.826497 15.4196C1.18692 15.0781 1.75543 15.0938 2.09743 15.4542C2.43854 15.8147 2.42326 16.3836 2.06283 16.7252C1.66914 17.0982 1.81385 17.5678 1.86778 17.7026C1.92126 17.8365 2.13833 18.2761 2.68032 18.2761C3.17647 18.2761 3.57914 18.6787 3.57914 19.1749C3.57914 19.671 3.17692 20.0737 2.68032 20.0737Z" fill="white"/>
<path id="shape07" d="M19.2681 20.0737C18.7719 20.0737 18.3693 19.6711 18.3693 19.1749C18.3693 18.6788 18.7719 18.2761 19.2681 18.2761C19.8105 18.2761 20.028 17.8348 20.082 17.6995C20.1354 17.5651 20.2797 17.0973 19.886 16.7247C19.5256 16.3832 19.5099 15.8147 19.851 15.4538C20.1925 15.0934 20.761 15.0776 21.1219 15.4187C21.9174 16.172 22.1645 17.3283 21.752 18.3642C21.3385 19.4028 20.3633 20.0737 19.2681 20.0737Z" fill="white"/>
<path id="shape08" d="M3.12991 13.0543C2.63375 13.0543 2.23108 12.6516 2.23108 12.1555V9.94167C2.23108 9.44552 2.63375 9.04285 3.12991 9.04285C3.62606 9.04285 4.02873 9.44552 4.02873 9.94167V12.1555C4.02873 12.6516 3.62651 13.0543 3.12991 13.0543Z" fill="white"/>
<path id="shape09" d="M18.8187 13.0543C18.3226 13.0543 17.9199 12.6516 17.9199 12.1555V9.94167C17.9199 9.44552 18.3226 9.04285 18.8187 9.04285C19.3149 9.04285 19.7176 9.44552 19.7176 9.94167V12.1555C19.7176 12.6516 19.3149 13.0543 18.8187 13.0543Z" fill="white"/>
<path id="shape10" d="M19.2682 20.0736H2.68044C2.18429 20.0736 1.78162 19.671 1.78162 19.1748C1.78162 18.6787 2.18429 18.276 2.68044 18.276H19.2678C19.7639 18.276 20.1666 18.6787 20.1666 19.1748C20.1666 19.671 19.7644 20.0736 19.2682 20.0736Z" fill="white"/>
</g>
<circle id="dot" cx="18.7644" cy="5.39294" r="4.89294" fill="#E45D32" stroke="white"/>
</g>
</svg>
