<svg width="174" height="179" viewBox="0 0 174 179" fill="none" xmlns="http://www.w3.org/2000/svg">
<g id="Group 9">
<g id="Rectangle" opacity="0.248744" filter="url(#filter0_f_1_6543)">
<rect x="9" y="106.021" width="133.837" height="64.3046" rx="32.1523" transform="rotate(-27 9 106.021)" fill="black"/>
</g>
<g id="stadium">
<g id="Layer_5">
<path id="Path" d="M101.515 13.4376L17.9118 61.4834L60.8181 98.2246L145.352 49.8798L135.311 25.4379L101.515 13.4376Z" fill="#F2F2F2"/>
<path id="Path_2" d="M82.9493 93.1665C81.8811 93.8354 80.564 93.8304 79.5002 93.1533L58.1603 79.5701C57.6393 79.2384 57.3201 78.6315 57.322 77.9762C57.3239 77.321 57.6467 76.7162 58.1696 76.3882L98.7029 50.9615C100.068 50.1052 101.752 50.1103 103.112 50.9749L126.544 65.8639L82.9493 93.1665Z" fill="url(#paint0_linear_1_6543)"/>
<path id="Shape" fill-rule="evenodd" clip-rule="evenodd" d="M83.055 93.3648C82.5017 93.7113 81.874 93.8934 81.2351 93.8929C80.5877 93.8933 79.9519 93.7064 79.3933 93.3514L58.0536 79.7679C57.4676 79.3951 57.1085 78.7125 57.1106 77.9756C57.1127 77.2387 57.4758 76.5586 58.0639 76.1898L98.597 50.7631C100.028 49.8675 101.793 49.8728 103.219 50.777L126.965 65.8653L83.055 93.3648ZM82.8436 92.968L126.124 65.8626L103.006 51.1729C101.71 50.3519 100.109 50.347 98.8088 51.1599L58.2753 76.5866C57.8175 76.8738 57.535 77.4032 57.5334 77.9768C57.5318 78.5505 57.8113 79.0818 58.2675 79.372L79.6072 92.9555C80.6058 93.5893 81.8409 93.5941 82.8436 92.968Z" fill="#314EB5"/>
<path id="Path_3" d="M129.777 63.9791C126.72 64.8077 132.521 58.003 129.801 56.2752L105.423 40.7849C100.744 37.8115 94.953 37.7919 90.2565 40.7336L32.0664 77.181C30.8002 77.9741 30.0182 79.4376 30.013 81.0236C30.0079 82.6097 30.7805 84.0791 32.0415 84.8818C32.0415 84.8818 29.1894 76.3616 32.319 72.92L43.0294 65.6806L94.0796 33.7497L100.113 31.8007L106.234 32.5791L113.422 36.7116L137.59 52.3806C137.59 52.3806 140.002 61.208 129.777 63.9791Z" fill="#CAD4F2"/>
<path id="Rectangle_2" d="M138.418 42.2106L133.092 48.9282L138.418 42.2106Z" fill="#808080"/>
<path id="Rectangle_3" d="M95.7614 32.4248L89.5345 21.7115L95.7614 32.4248Z" fill="#808080"/>
<path id="Rectangle_4" d="M111.625 22.2272L106.234 32.579L111.625 22.2272Z" fill="#808080"/>
<path id="Rectangle_5" d="M125.612 33.5594L120.287 40.2772L125.612 33.5594Z" fill="#808080"/>
<path id="Rectangle_6" d="M80.6509 41.1645L72.5525 33.3008L80.6509 41.1645Z" fill="#808080"/>
<path id="Rectangle_7" d="M65.5251 51.038L57.4318 43.1678L65.5251 51.038Z" fill="#808080"/>
<path id="Rectangle_8" d="M48.5889 62.4255L40.4956 54.5553L48.5889 62.4255Z" fill="#808080"/>
<path id="Rectangle_9" d="M35.4489 69.4778L26.0193 62.6907L35.4489 69.4778Z" fill="#808080"/>
<path id="Rectangle_10" d="M97.5646 51.6588L85.234 38.8616L97.5646 51.6588Z" fill="#808080"/>
<path id="Rectangle_11" d="M116.438 39.223L104.351 51.7708L116.438 39.223Z" fill="#808080"/>
<path id="Rectangle_12" d="M131.716 48.0484L119.629 60.5962L131.716 48.0484Z" fill="#808080"/>
<path id="Rectangle_13" d="M78.5058 63.7382L65.3983 51.2046L78.5058 63.7382L78.5058 63.7382Z" fill="#808080"/>
<path id="Rectangle_14" d="M59.8106 75.135L44.5401 63.9093L59.8106 75.135Z" fill="#808080"/>
<path id="Shape_2" fill-rule="evenodd" clip-rule="evenodd" d="M133.476 57.6959L75.8573 93.7303C70.5616 97.0337 64.0402 97.0067 58.7679 93.6595L35.1027 78.5958C33.647 77.6692 32.7552 75.973 32.7611 74.1421C32.7671 72.3112 33.6699 70.6218 35.1316 69.7063L93.3216 33.2589C98.2172 30.2004 104.248 30.2207 109.126 33.3122L133.504 48.8024C134.962 49.7284 135.855 51.4257 135.849 53.2579C135.843 55.0902 134.939 56.7808 133.476 57.6959ZM132.863 49.9897L108.485 34.4994C104.001 31.6571 98.4564 31.6383 93.9558 34.4502L35.7658 70.8976C34.6951 71.5682 34.0338 72.8057 34.0295 74.1468C34.0251 75.4879 34.6784 76.7303 35.7447 77.409L59.4099 92.4727C64.2887 95.5704 70.3235 95.5953 75.224 92.5381L132.843 56.5042C133.914 55.8338 134.577 54.5955 134.581 53.2534C134.585 51.9113 133.931 50.6681 132.863 49.9897Z" fill="#6780ED"/>
<path id="Shape_3" fill-rule="evenodd" clip-rule="evenodd" d="M75.6463 92.5094C73.1289 94.082 70.2745 94.9088 67.3695 94.9068C64.4211 94.9088 61.5255 94.0572 58.9817 92.44L35.3169 77.3768C33.9908 76.5329 33.1783 74.9878 33.1836 73.3201C33.189 71.6523 34.0114 70.1134 35.3429 69.2796L92.8899 33.2349C98.0517 30.0105 104.41 30.032 109.553 33.2913L133.29 48.3745C134.618 49.218 135.432 50.7639 135.426 52.4328C135.421 54.1017 134.598 55.6415 133.265 56.4751L75.6463 92.5094ZM109.339 33.6872C106.863 32.1155 104.045 31.2881 101.176 31.2901C98.3418 31.2882 95.5568 32.096 93.1013 33.6322L35.5543 69.6768C34.3532 70.429 33.6113 71.8172 33.6064 73.3217C33.6016 74.8262 34.3345 76.22 35.5308 76.9813L59.1956 92.0441C64.2057 95.2251 70.4028 95.2509 75.4353 92.1117L133.054 56.0778C134.256 55.3258 134.999 53.9367 135.003 52.4313C135.008 50.9258 134.274 49.5312 133.077 48.7704L109.339 33.6872Z" fill="#3454BE"/>
<path id="Shape_4" fill-rule="evenodd" clip-rule="evenodd" d="M75.6463 94.2502C73.1288 95.8229 70.2742 96.6497 67.3691 96.6476C64.4208 96.6495 61.5254 95.7981 58.9817 94.1813L35.3169 79.1176C33.9908 78.2738 33.1783 76.7287 33.1836 75.061C33.189 73.3932 34.0114 71.8544 35.3429 71.0206L93.533 34.5731C98.297 31.5968 104.166 31.6166 108.913 34.6251L133.291 50.1153C134.618 50.9589 135.432 52.5049 135.426 54.1737C135.421 55.8426 134.597 57.3823 133.265 58.2159L75.6463 94.2502ZM135.003 54.1722C135.008 52.6667 134.274 51.2722 133.077 50.5112L108.699 35.021C104.083 32.0954 98.3765 32.0761 93.7443 34.9704L35.5543 71.4178C34.3532 72.17 33.6113 73.5582 33.6064 75.0627C33.6016 76.5671 34.3345 77.9609 35.5308 78.7222L59.1955 93.7854C64.2056 96.9667 70.403 96.9923 75.4353 93.8525L133.054 57.8187C134.256 57.0666 134.999 55.6776 135.003 54.1722Z" fill="url(#paint1_linear_1_6543)"/>
<path id="Path_4" d="M100.639 51.6005L58.6383 77.873L78.2894 90.1857L120.287 63.9053L100.639 51.6005Z" fill="url(#paint2_linear_1_6543)"/>
<path id="Shape_5" fill-rule="evenodd" clip-rule="evenodd" d="M79.864 87.4249C79.8479 87.435 79.8297 87.4402 79.8111 87.4401C79.7926 87.4402 79.7744 87.435 79.7583 87.4249L63.1505 77.019C63.1178 76.9985 63.0976 76.9606 63.0976 76.9196C63.0976 76.8787 63.1178 76.8408 63.1505 76.8203L99.0642 54.361C99.097 54.3407 99.1372 54.3408 99.1699 54.3612L115.774 64.7602C115.807 64.7807 115.827 64.8186 115.827 64.8595C115.827 64.9005 115.807 64.9384 115.774 64.9589L79.864 87.4249ZM79.8111 87.1929L115.51 64.8594L99.1171 54.5928L63.4147 76.9198L79.8111 87.1929Z" fill="white"/>
<path id="Path_5" d="M99.1337 75.3827C99.1815 75.3827 99.2233 75.3478 99.2356 75.2978C99.248 75.2477 99.2279 75.1949 99.1865 75.1689L82.5789 64.7629C82.5284 64.7313 82.4639 64.7501 82.4347 64.8048C82.4055 64.8596 82.4228 64.9297 82.4732 64.9613L99.0809 75.3673C99.0969 75.3774 99.1151 75.3827 99.1337 75.3827Z" fill="white"/>
<path id="Shape_6" fill-rule="evenodd" clip-rule="evenodd" d="M95.3058 72.6611C94.2858 73.2436 93.1463 73.5365 91.9938 73.5124C90.8429 73.5378 89.7052 73.2435 88.6888 72.6575C87.7945 72.0966 87.303 71.3439 87.305 70.5387C87.3069 69.7245 87.8112 68.9645 88.7247 68.3984C90.5589 67.2619 93.5272 67.263 95.3415 68.4017C96.236 68.9629 96.7273 69.7155 96.7255 70.5208C96.7234 71.3347 96.2193 72.0948 95.3058 72.6611ZM95.2358 68.6001C94.252 68.033 93.1508 67.7482 92.0369 67.7727V67.7727C90.9207 67.7495 89.8173 68.0333 88.8296 68.5977C87.9846 69.1212 87.5181 69.8107 87.5164 70.5391C87.5146 71.2591 87.9685 71.9409 88.7945 72.4591C90.551 73.5613 93.4246 73.5624 95.2009 72.4618C96.0459 71.9382 96.5122 71.2485 96.5141 70.5203C96.5157 69.8004 96.0618 69.1185 95.2358 68.6001Z" fill="white"/>
<path id="Path_6" d="M77.8784 80.0057C77.8968 80.0057 77.9149 80.0005 77.9308 79.9905C78.3427 79.792 78.6226 79.3664 78.6616 78.8794C78.6266 78.399 78.3535 77.9774 77.9488 77.7788C76.9008 77.2055 75.6643 77.2048 74.6157 77.777C74.5656 77.8087 74.5485 77.8783 74.5772 77.9329C74.606 77.9876 74.6699 78.0069 74.7206 77.9763C75.7027 77.4396 76.8613 77.4399 77.8431 77.9772C78.1804 78.1372 78.4123 78.4815 78.4502 78.8787C78.4087 79.2827 78.1703 79.6314 77.826 79.7917C77.7844 79.8175 77.7641 79.8704 77.7764 79.9205C77.7887 79.9707 77.8305 80.0057 77.8784 80.0057L77.8784 80.0057Z" fill="white"/>
<path id="Path_7" d="M75.7982 84.9258C75.8177 84.9259 75.8369 84.92 75.8535 84.9088L80.631 81.7286C80.6627 81.7076 80.6819 81.6699 80.6814 81.6296C80.6809 81.5892 80.6609 81.552 80.6287 81.5315L72.1513 76.2041C72.1183 76.1834 72.0776 76.1835 72.0448 76.2045L67.154 79.3299C67.1214 79.3507 67.1015 79.3888 67.1018 79.4298C67.1021 79.4708 67.1225 79.5085 67.1554 79.5288C67.1884 79.549 67.2287 79.5486 67.2613 79.5278L72.0989 76.4361L80.3694 81.6337L75.7428 84.7136C75.7026 84.7405 75.6837 84.7931 75.6966 84.8424C75.7094 84.8917 75.7509 84.9258 75.7982 84.9259L75.7982 84.9258Z" fill="white"/>
<path id="Path_8" d="M74.4023 84.0248C74.4219 84.0248 74.4411 84.0189 74.4577 84.0078L77.6601 81.876C77.6918 81.8548 77.7109 81.8171 77.7104 81.7767C77.71 81.7363 77.69 81.6992 77.6578 81.6789L71.9747 78.1077C71.9417 78.087 71.901 78.0872 71.8681 78.1081L68.5896 80.2028C68.557 80.2236 68.5371 80.2617 68.5374 80.3027C68.5377 80.3437 68.5581 80.3814 68.591 80.4017C68.624 80.4219 68.6643 80.4215 68.6969 80.4007L71.9222 78.3397L77.3983 81.781L74.347 83.8125C74.3067 83.8394 74.2878 83.892 74.3007 83.9413C74.3136 83.9907 74.3551 84.0247 74.4023 84.0248L74.4023 84.0248Z" fill="white"/>
<path id="Path_9" d="M106.53 65.308C106.549 65.308 106.567 65.3028 106.583 65.2929L111.469 62.2632C111.503 62.2431 111.523 62.2052 111.524 62.1639C111.524 62.1227 111.504 62.0844 111.471 62.0637C111.438 62.043 111.397 62.0431 111.365 62.0639L106.531 65.0612L97.775 59.5839L102.512 56.6072C102.545 56.5866 102.565 56.5487 102.565 56.5078C102.565 56.4668 102.545 56.429 102.512 56.4086C102.479 56.3881 102.439 56.3882 102.406 56.4088L97.5108 59.4849C97.4781 59.5055 97.4581 59.5433 97.4581 59.5843C97.4582 59.6252 97.4783 59.663 97.511 59.6835L106.477 65.2927C106.494 65.3027 106.512 65.3079 106.53 65.308Z" fill="white"/>
<path id="Path_10" d="M106.507 63.2312C106.526 63.2313 106.544 63.2261 106.56 63.2162L109.739 61.245C109.772 61.2249 109.793 61.187 109.793 61.1457C109.794 61.1045 109.774 61.0662 109.741 61.0455C109.708 61.0248 109.667 61.0249 109.634 61.0457L106.507 62.9845L100.884 59.4668L103.911 57.5647C103.962 57.533 103.979 57.4628 103.95 57.408C103.921 57.3532 103.856 57.3345 103.805 57.3663L100.62 59.3678C100.587 59.3884 100.567 59.4262 100.567 59.4672C100.567 59.5081 100.588 59.5459 100.62 59.5664L106.454 63.216C106.47 63.226 106.489 63.2312 106.507 63.2312Z" fill="white"/>
<path id="Path_11" d="M102.243 64.0179C102.823 64.0299 103.397 63.8823 103.911 63.589C103.944 63.5689 103.965 63.531 103.965 63.4898C103.966 63.4485 103.946 63.4102 103.913 63.3895C103.88 63.3689 103.839 63.3689 103.806 63.3897C102.824 63.9261 101.665 63.9257 100.683 63.3886C100.346 63.2287 100.114 62.8842 100.076 62.4869C100.118 62.0831 100.356 61.7347 100.701 61.5746C100.734 61.5545 100.755 61.5166 100.755 61.4753C100.755 61.4341 100.735 61.3958 100.702 61.3751C100.669 61.3544 100.629 61.3545 100.596 61.3753C100.184 61.5738 99.9042 61.9993 99.865 62.4862C99.8999 62.9666 100.173 63.3885 100.578 63.587C101.09 63.8821 101.663 64.0304 102.243 64.0179Z" fill="white"/>
<path id="Rectangle_15" d="M59.7113 80.5575L42.5488 88.6484L59.7113 80.5575Z" fill="#808080"/>
</g>
<g id="Layer_3">
<path id="Path_12" d="M152.73 51.3373L142.745 56.6858L131.582 49.6712L74.9454 85.0915C69.5028 88.4953 62.7945 88.4674 57.376 85.0185L36.5101 71.737L24.3508 79.3646L16.0943 76.3636L16.1968 93.0674L16.2083 93.0702C16.3091 97.9913 18.7776 102.496 22.7148 104.943L46.0735 119.643C58.0694 127.193 72.8707 127.21 84.8812 119.688L146.933 80.8258C150.491 78.6254 152.679 74.5152 152.657 70.0728L152.657 70.0727L152.73 51.3373Z" fill="url(#paint3_linear_1_6543)"/>
<path id="Path_13" opacity="0.118629" d="M65.5129 120.486C72.3485 120.491 79.0651 118.545 84.9871 114.841L147.039 75.9797C151.001 73.5296 153.265 68.7822 152.82 63.8589L152.399 63.9005C152.828 68.6456 150.646 73.2211 146.828 75.5824L84.7757 114.445C72.8252 121.904 58.1154 121.887 46.1795 114.4L22.8211 99.6997C18.3247 96.9231 15.8269 91.4686 16.5038 85.9044L16.0844 85.8489C15.3853 91.5955 17.965 97.2289 22.6089 100.097L45.9673 114.797C51.9066 118.528 58.6494 120.491 65.5129 120.486Z" fill="black"/>
<path id="Path_14" opacity="0.118629" d="M65.3061 116.93C72.1417 116.936 78.8582 114.989 84.7802 111.286L146.832 72.4243C150.794 69.9744 153.059 65.2269 152.613 60.3035L152.192 60.3452C152.622 65.0902 150.439 69.6658 146.621 72.0271L84.5688 110.889C72.6183 118.348 57.9087 118.331 45.9727 110.845L22.6143 96.1446C18.1179 93.368 15.6201 87.9135 16.297 82.3493L15.8775 82.2937C15.1784 88.0404 17.7582 93.6738 22.4021 96.5414L45.7605 111.242C51.6999 114.973 58.4426 116.935 65.3061 116.93Z" fill="black"/>
<path id="Path_15" opacity="0.118629" d="M65.0992 113.375C71.9348 113.381 78.6514 111.434 84.5733 107.731L146.626 68.869C150.588 66.4191 152.852 61.6716 152.406 56.7482L151.985 56.7899C152.415 61.5349 150.233 66.1105 146.414 68.4718L84.362 107.334C72.4115 114.793 57.7017 114.776 45.7658 107.29L22.4074 92.5895C17.911 89.8126 15.4133 84.3581 16.0901 78.7938L15.6706 78.7385C14.9719 84.4851 17.5515 90.1183 22.1952 92.9863L45.5536 107.686C51.4929 111.418 58.2357 113.38 65.0992 113.375Z" fill="black"/>
<path id="Path_16" d="M127.411 1.18042V26.8894L144.056 46.027V11.5986L127.411 1.18042Z" fill="white"/>
<path id="Path_17" d="M144.056 11.6032V60.2484L145.775 59.1803V10.4948L144.056 11.6032Z" fill="#3352BF"/>
<path id="Path_18" d="M127.411 1.18045L129.15 0.0999756L145.775 10.4947L144.056 11.6032L127.411 1.18045Z" fill="#1F72CE"/>
<path id="Shape_7" fill-rule="evenodd" clip-rule="evenodd" d="M157.156 50.2404V40.741L154.435 41.2075C153.492 39.9528 152.346 38.8953 151.053 38.0868L123.379 20.6978C110.551 12.6367 94.7278 12.6304 81.8936 20.6814L18.2687 60.5935C16.3882 61.7625 14.7854 63.3918 13.5882 65.3516L11.2843 65.7466V73.8243L11.2873 73.8238C11.2906 79.2054 13.9472 84.174 18.2518 86.8496L43.2215 102.564C56.0448 110.634 71.8669 110.652 84.7058 102.611L151.038 61.069C154.65 58.8363 156.953 54.7488 157.137 50.2435L157.156 50.2404ZM111.154 22.2748L136.504 38.3825C137.852 39.2392 138.678 40.8093 138.673 42.5042C138.668 44.1992 137.831 45.7631 136.478 46.6097L74.9455 85.0915C69.5029 88.4953 62.7946 88.4675 57.3761 85.0185L32.1036 68.9321C30.7569 68.0749 29.9319 66.5057 29.9373 64.8119C29.9428 63.1182 30.7779 61.5553 32.1301 60.7083L93.586 22.2153C99.0261 18.8079 105.734 18.8306 111.154 22.2748Z" fill="black"/>
<path id="Shape_8" opacity="0.401111" fill-rule="evenodd" clip-rule="evenodd" d="M84.7937 95.4167L151.126 53.8746C154.909 51.5051 157.241 47.1273 157.244 42.3882C157.247 37.6492 154.921 33.2678 151.141 30.8924L123.467 13.5034C110.639 5.44225 94.8157 5.43599 81.9815 13.4869L18.3566 53.3991C9.05154 59.2362 9.04214 73.8039 18.3397 79.6551L43.3094 95.3693C56.1327 103.439 71.9548 103.457 84.7937 95.4167ZM111.035 22.418L136.385 38.5257C137.733 39.3825 138.559 40.9525 138.554 42.6475C138.549 44.3425 137.712 45.9063 136.359 46.7529L74.8266 85.2348C69.3839 88.6386 62.6756 88.6107 57.2571 85.1618L31.9847 69.0754C30.6379 68.2182 29.8129 66.6489 29.8184 64.9552C29.8238 63.2614 30.659 61.6985 32.0112 60.8516L93.4671 22.3585C98.9071 18.9511 105.615 18.9739 111.035 22.418Z" fill="#E6E6E6"/>
<path id="Shape_9" fill-rule="evenodd" clip-rule="evenodd" d="M84.7057 94.8148L151.038 53.2727C154.821 50.9032 157.153 46.5254 157.156 41.7864C157.159 37.0473 154.833 32.6659 151.053 30.2905L123.379 12.9015C110.551 4.84039 94.7277 4.83412 81.8935 12.8851L18.2686 52.7972C8.96353 58.6343 8.95415 73.202 18.2516 79.0533L43.2214 94.7674C56.0447 102.838 71.8668 102.856 84.7057 94.8148ZM111.154 22.2748L136.504 38.3825C137.852 39.2392 138.678 40.8093 138.673 42.5042C138.667 44.1992 137.831 45.7631 136.478 46.6097L74.9454 85.0915C69.5028 88.4953 62.7945 88.4674 57.376 85.0185L32.1035 68.9321C30.7568 68.0749 29.9317 66.5057 29.9372 64.8119C29.9427 63.1182 30.7778 61.5553 32.13 60.7083L93.5859 22.2153C99.026 18.8079 105.734 18.8306 111.154 22.2748Z" fill="url(#paint4_linear_1_6543)"/>
<path id="Path_19" opacity="0.173014" d="M105.061 19.9191C105.278 19.9563 105.494 19.9907 105.709 20.0368L119.901 10.951C119.744 10.8728 119.586 10.7965 119.429 10.7206L105.061 19.9191Z" fill="white"/>
<path id="Path_20" opacity="0.173014" d="M116.807 25.8667L117.224 26.1318L130.702 17.5027L130.283 17.239L116.807 25.8667Z" fill="white"/>
<path id="Path_21" opacity="0.173014" d="M140.898 23.9099L127.364 32.5747L127.781 32.8398L141.318 24.1735L140.898 23.9099Z" fill="white"/>
<path id="Path_22" opacity="0.173014" d="M151.497 30.5915L137.659 39.4511C137.75 39.5704 137.837 39.6919 137.916 39.8185L151.892 30.8706C151.764 30.7746 151.63 30.6833 151.497 30.5915Z" fill="white"/>
<path id="Path_23" opacity="0.173014" d="M30.9692 67.8879C30.8768 67.7692 30.7881 67.6487 30.7082 67.5225L15.7793 77.0805L15.7851 77.0913C15.8913 77.1964 16.0018 77.2979 16.1117 77.4001L30.9692 67.8879Z" fill="white"/>
<path id="Path_24" opacity="0.173014" d="M48.0399 97.3602L63.5936 87.4022C63.3774 87.3666 63.1616 87.3286 62.9465 87.2841L47.5605 97.1346C47.7204 97.2097 47.8794 97.2874 48.0399 97.3602Z" fill="white"/>
<path id="Path_25" d="M26.4782 84.2302L41.2648 74.7636L40.8479 74.4981L26.0588 83.9665L26.4782 84.2302Z" fill="#F2F2F2"/>
<path id="Path_26" opacity="0.173014" d="M51.813 81.4776L51.3957 81.2121L36.6666 90.6419L37.086 90.9061L51.813 81.4776Z" fill="white"/>
<path id="Shape_10" fill-rule="evenodd" clip-rule="evenodd" d="M76.702 88.5491L140.457 48.6209C142.572 47.2966 143.877 44.8522 143.885 42.2036C143.893 39.5549 142.601 37.1017 140.494 35.7629L113.451 18.579C106.852 14.3857 98.6846 14.361 92.0639 18.5141L28.3932 58.455C26.281 59.78 24.9771 62.2228 24.9694 64.8695C24.9616 67.5163 26.2512 69.968 28.3556 71.3075L55.3145 88.4673C61.911 92.6661 70.0784 92.6974 76.702 88.5491ZM111.154 22.2748L136.504 38.3825C137.852 39.2392 138.678 40.8093 138.673 42.5042C138.668 44.1992 137.831 45.7631 136.478 46.6097L74.9455 85.0915C69.5029 88.4953 62.7946 88.4674 57.3761 85.0185L32.1036 68.9321C30.7569 68.0749 29.9318 66.5057 29.9373 64.8119C29.9428 63.1182 30.7779 61.5553 32.1301 60.7083L93.586 22.2153C99.0261 18.8079 105.734 18.8306 111.154 22.2748Z" fill="#B1FFE3"/>
<path id="Path_27" d="M32.13 62.5427L93.5859 24.0496C99.026 20.6422 105.734 20.665 111.154 24.1091L136.504 40.2168C137.592 40.9002 138.351 42.064 138.583 43.4042C138.952 41.42 138.116 39.4011 136.504 38.3824L111.154 22.2747C105.734 18.8305 99.026 18.8078 93.5859 22.2152L32.13 60.7083C30.5025 61.7218 29.6553 63.7511 30.0266 65.7465C30.2605 64.3955 31.0295 63.2241 32.13 62.5427Z" fill="#657DFE"/>
<path id="Path_28" d="M21.382 67.3916V109.61L38.0267 120.034V77.8097L21.382 67.3916Z" fill="white"/>
<path id="Path_29" d="M21.3836 67.3916L23.123 66.3116L39.7478 76.7059L38.0284 77.8148L21.3836 67.3916Z" fill="#1F72CE"/>
<path id="Path_30" d="M27.0751 42.9167V47.273L30.5558 45.0896L27.0751 42.9167Z" fill="#CCCCCC"/>
<path id="Path_31" d="M27.0751 44.2925L45.5868 55.1147L89.8727 27.2255L89.8989 26.6179L71.4612 16.4946L27.0751 44.2925Z" fill="#3453BE"/>
<path id="Path_32" d="M27.0751 42.9167L45.5133 54.4158L89.8989 26.6179L71.4612 15.1188L27.0751 42.9167Z" fill="#046644"/>
<path id="Path_33" d="M27.0751 42.9167L28.3464 43.7106V46.4755L27.0751 47.273V42.9167Z" fill="#3453BE"/>
<path id="Path_34" d="M81.6746 77.6231L98.083 88.4113L142.946 60.7882L126.054 50.3384L81.6746 77.6231Z" fill="#5A80DA"/>
<path id="Path_35" d="M81.6746 77.2181L98.083 87.4941L142.946 59.8709L126.054 49.4211L81.6746 77.2181Z" fill="url(#paint5_linear_1_6543)"/>
<path id="Path_36" d="M98.083 88.9836V116.24L142.946 88.0664V59.8709L98.083 87.4941V88.9836Z" fill="black"/>
<path id="Path_37" d="M96.5107 86.4893V95.7902L94.2383 97.2656V113.833L98.083 116.24V95.7902V87.4941L96.5107 86.4893Z" fill="#5A80DA"/>
<path id="Path_38" d="M39.7462 100.346V76.7059L38.0268 77.8143V120.039L39.7462 118.971L41.083 118.119V101.194L39.7462 100.346Z" fill="#3352BF"/>
<path id="Path_39" d="M106.431 111.023L106.429 99.4926L113.026 103.805V115.375L106.431 111.023Z" fill="url(#paint6_linear_1_6543)"/>
<path id="Path_40" d="M142.998 85.4134V96.4997L133.196 102.674L131.197 101.384L128.511 103.104V105.626L127.651 106.167L125.438 104.739L122.752 106.458V109.253L113.027 115.375V103.814L142.998 85.4134Z" fill="#3555BF"/>
<path id="Path_41" d="M105.6 100.014V101.009L113.143 106.032L144.759 86.1797V85.501L113.143 104.942L105.6 100.014Z" fill="#768DDA"/>
<path id="Path_42" d="M105.6 100.014L113.143 105.321L144.759 85.501L136.924 80.3829L105.6 100.014Z" fill="white"/>
<path id="Path_43" d="M131.042 94.0992L128.66 95.5252L131.042 94.0992Z" fill="#E6E6E6"/>
<path id="Path_44" d="M134.121 102.092V93.7169L141.979 88.7621V97.1216L134.121 102.092Z" fill="#768DDA"/>
<path id="Path_45" d="M113.956 114.827V106.451L121.814 101.497V109.856L113.956 114.827Z" fill="#768DDA"/>
<path id="Path_46" d="M133.196 102.674V93.4413L129.712 95.6293V100.45L133.196 102.674Z" fill="#5A80DA"/>
<path id="Path_47" d="M131.197 94.697V101.384L128.511 103.104V96.3837L131.197 94.697Z" fill="#2F4EB6"/>
<path id="Path_48" d="M125.438 98.3383V104.739L122.752 106.458V100.025L125.438 98.3383Z" fill="#2F4EB6"/>
<path id="Path_49" d="M127.651 106.167L125.438 104.739V98.2993L127.651 96.924V106.167Z" fill="#5A80DA"/>
<path id="Path_50" d="M133.946 95.6417L142.288 90.4397L142.214 90.3012L133.872 95.5027L133.946 95.6417Z" fill="#E6E6E6"/>
<path id="Path_51" d="M133.946 97.3293L142.288 92.1274L142.214 91.9884L133.872 97.1904L133.946 97.3293Z" fill="#E6E6E6"/>
<path id="Path_52" d="M133.946 99.0165L142.288 93.8155L142.214 93.6765L133.872 98.878L133.946 99.0165Z" fill="#E6E6E6"/>
<path id="Path_53" d="M133.946 100.704L142.288 95.5027L142.214 95.3642L133.872 100.565L133.946 100.704Z" fill="#E6E6E6"/>
<path id="Path_54" d="M113.751 108.301L122.093 103.099L122.019 102.96L113.677 108.162L113.751 108.301Z" fill="#E6E6E6"/>
<path id="Path_55" d="M113.751 109.988L122.093 104.786L122.019 104.648L113.677 109.85L113.751 109.988Z" fill="#E6E6E6"/>
<path id="Path_56" d="M113.751 111.676L122.093 106.474L122.019 106.335L113.677 111.537L113.751 111.676Z" fill="#E6E6E6"/>
<path id="Path_57" d="M113.751 113.364L122.093 108.162L122.019 108.023L113.677 113.225L113.751 113.364Z" fill="#E6E6E6"/>
<path id="Path_58" d="M119.619 28.612V34.867C119.619 35.141 119.754 35.3941 119.973 35.5304L126.429 39.547C126.562 39.6294 126.725 39.629 126.857 39.546C126.989 39.463 127.07 39.3099 127.07 39.1442V32.9896C127.07 32.7172 126.937 32.4654 126.72 32.3285L120.226 28.233C120.101 28.1542 119.947 28.1538 119.821 28.232C119.696 28.3102 119.619 28.4551 119.619 28.612Z" fill="#27419B"/>
<path id="Path_59" d="M119.328 28.827V35.082C119.328 35.356 119.463 35.609 119.682 35.7453L126.139 39.762C126.271 39.8444 126.434 39.844 126.566 39.761C126.698 39.678 126.78 39.5248 126.78 39.3592V33.2046C126.78 32.9322 126.646 32.6804 126.429 32.5435L119.935 28.448C119.81 28.3692 119.656 28.3688 119.531 28.447C119.405 28.5252 119.328 28.6701 119.328 28.827Z" fill="#27419B"/>
</g>
</g>
</g>
<defs>
<filter id="filter0_f_1_6543" x="-6.60116" y="29.6593" width="179.646" height="149.259" filterUnits="userSpaceOnUse" color-interpolation-filters="sRGB">
<feFlood flood-opacity="0" result="BackgroundImageFix"/>
<feBlend mode="normal" in="SourceGraphic" in2="BackgroundImageFix" result="shape"/>
<feGaussianBlur stdDeviation="13.3434" result="effect1_foregroundBlur_1_6543"/>
</filter>
<linearGradient id="paint0_linear_1_6543" x1="131.032" y1="59.4023" x2="118.07" y2="100.551" gradientUnits="userSpaceOnUse">
<stop stop-color="#A0A8FF"/>
<stop offset="1" stop-color="#FE9C67"/>
</linearGradient>
<linearGradient id="paint1_linear_1_6543" x1="24.7115" y1="99.2147" x2="30.3833" y2="28.8158" gradientUnits="userSpaceOnUse">
<stop stop-color="#7B92D8"/>
<stop offset="0.0766537" stop-color="#788FD8"/>
<stop offset="1" stop-color="#6780EE"/>
</linearGradient>
<linearGradient id="paint2_linear_1_6543" x1="133.153" y1="58.6281" x2="127.137" y2="96.2156" gradientUnits="userSpaceOnUse">
<stop stop-color="#2BB947"/>
<stop offset="1" stop-color="#2EAE40"/>
</linearGradient>
<linearGradient id="paint3_linear_1_6543" x1="62.2753" y1="33.4482" x2="128.158" y2="91.2596" gradientUnits="userSpaceOnUse">
<stop stop-color="white"/>
<stop offset="1" stop-color="#C1CBE4"/>
</linearGradient>
<linearGradient id="paint4_linear_1_6543" x1="-0.803195" y1="104.585" x2="7.68851" y2="1.71108" gradientUnits="userSpaceOnUse">
<stop stop-color="#5BDEB0"/>
<stop offset="0.0766537" stop-color="#28C28B"/>
<stop offset="1" stop-color="#25C18A"/>
</linearGradient>
<linearGradient id="paint5_linear_1_6543" x1="71.9251" y1="51.644" x2="128.47" y2="29.3606" gradientUnits="userSpaceOnUse">
<stop stop-color="#0B5F41"/>
<stop offset="1" stop-color="#006C47"/>
</linearGradient>
<linearGradient id="paint6_linear_1_6543" x1="106.429" y1="99.4926" x2="113.026" y2="99.4926" gradientUnits="userSpaceOnUse">
<stop stop-color="#3453BE"/>
<stop offset="1" stop-color="#2946AA"/>
</linearGradient>
</defs>
</svg>
