<svg width="29" height="21" viewBox="0 0 29 21" fill="none" xmlns="http://www.w3.org/2000/svg">
<g id="Group">
<path id="Vector" d="M10.4672 10.6133H6.89883C6.59297 10.6133 6.34375 10.8626 6.34375 11.1684V14.1024C6.34375 14.4083 6.59297 14.6575 6.89883 14.6575H10.4672C10.773 14.6575 11.0223 14.4083 11.0223 14.1024V11.1684C11.0223 10.8626 10.773 10.6133 10.4672 10.6133ZM9.91211 13.5473H7.44258V11.7235H9.91211V13.5473Z" fill="black"/>
<path id="Vector_2" d="M16.2899 10.6133H12.7216C12.4157 10.6133 12.1665 10.8626 12.1665 11.1684V14.1024C12.1665 14.4083 12.4157 14.6575 12.7216 14.6575H16.2899C16.5958 14.6575 16.845 14.4083 16.845 14.1024V11.1684C16.845 10.8626 16.5958 10.6133 16.2899 10.6133ZM15.7349 13.5473H13.2653V11.7235H15.7349V13.5473Z" fill="black"/>
<path id="Vector_3" d="M22.1239 10.6133H18.5556C18.2497 10.6133 18.0005 10.8626 18.0005 11.1684V14.1024C18.0005 14.4083 18.2497 14.6575 18.5556 14.6575H22.1239C22.4298 14.6575 22.679 14.4083 22.679 14.1024V11.1684C22.679 10.8626 22.4298 10.6133 22.1239 10.6133ZM21.5688 13.5473H19.0993V11.7235H21.5688V13.5473Z" fill="black"/>
<path id="Vector_4" d="M28.1618 6.27471L26.2133 0.39541C26.134 0.168847 25.9301 0.0102539 25.6922 0.0102539H3.3192C3.08131 0.0102539 2.86608 0.157519 2.79811 0.39541L0.838344 6.27471C0.793032 6.354 0.770376 6.4333 0.770376 6.53525C0.759047 6.84111 1.01959 7.09033 1.32545 7.10166C2.08444 7.12432 2.80944 7.40752 3.34186 7.91728C3.42116 7.99658 3.51178 8.07588 3.60241 8.15518L3.59108 20.4349C3.59108 20.5821 3.64772 20.7181 3.74967 20.8313C3.85163 20.9333 3.99889 20.9899 4.14616 20.9899H24.854C25.1598 20.9899 25.409 20.7407 25.409 20.4349V8.14385C25.4883 8.07588 25.579 8.00791 25.6469 7.92861C26.202 7.41885 26.9157 7.12432 27.686 7.10166C27.9919 7.09033 28.2297 6.82979 28.2297 6.53525C28.2297 6.44463 28.1958 6.354 28.1618 6.27471ZM24.2989 19.8685H4.70123V17.6368H24.2876L24.2989 19.8685ZM24.2989 16.538H4.70123L4.71256 8.73291C5.01842 8.82354 5.33561 8.88018 5.66413 8.88018C6.53639 8.88018 7.36334 8.54033 7.98639 7.91728C9.08522 6.81846 10.9997 6.82979 12.1665 7.92861C12.8008 8.54033 13.6278 8.88018 14.5001 8.88018C15.3723 8.88018 16.1993 8.54033 16.8337 7.92861C17.9778 6.82979 19.8922 6.82978 21.0137 7.91728C21.6368 8.54033 22.4524 8.88018 23.336 8.88018C23.6645 8.88018 23.9817 8.82354 24.2989 8.73291V16.538ZM24.8766 7.12432C24.8087 7.19229 24.7294 7.26025 24.6387 7.32822C24.5708 7.36221 24.5141 7.39619 24.4575 7.45283C24.1176 7.65674 23.7325 7.77002 23.336 7.77002C22.7583 7.77002 22.2145 7.54346 21.7954 7.12432C20.2434 5.629 17.6266 5.629 16.0633 7.12432C15.6329 7.53213 15.0778 7.75869 14.5001 7.77002C13.9223 7.77002 13.3559 7.54346 12.9255 7.12432C12.1325 6.37666 11.079 6.00283 10.0368 6.00283C8.99459 6.00283 7.95241 6.37666 7.19342 7.13565C6.78561 7.54346 6.24186 7.77002 5.66413 7.77002C5.27897 7.77002 4.90514 7.66807 4.5653 7.47549C4.50866 7.40752 4.42936 7.36221 4.35006 7.32822C4.27077 7.27158 4.19147 7.20361 4.11217 7.12432C3.54577 6.59189 2.83209 6.22939 2.08444 6.08213L3.72702 1.13174H25.2844L26.927 6.08213C26.1567 6.22939 25.4544 6.58057 24.8766 7.12432Z" fill="black"/>
</g>
</svg>
