<svg width="19" height="19" viewBox="0 0 19 19" fill="none" xmlns="http://www.w3.org/2000/svg">
<g id="iconfinder_1_Youtube_colored_svg_5296521 1" clip-path="url(#clip0_1_6527)">
<g id="Group">
<path id="Vector" d="M18.6029 4.92509C18.3844 4.10757 17.7407 3.46384 16.9232 3.24537C15.4413 2.84827 9.49993 2.84827 9.49993 2.84827C9.49993 2.84827 3.55853 2.84827 2.07664 3.24537C1.25931 3.46384 0.615422 4.10757 0.396922 4.92509C0 6.4068 0 9.4983 0 9.4983C0 9.4983 0 12.5898 0.396922 14.0714C0.615422 14.8889 1.25931 15.5328 2.07664 15.7512C3.55853 16.1482 9.49993 16.1482 9.49993 16.1482C9.49993 16.1482 15.4413 16.1482 16.9232 15.7512C17.7407 15.5328 18.3844 14.8889 18.6029 14.0714C19 12.5898 19 9.4983 19 9.4983C19 9.4983 19 6.4068 18.6029 4.92509Z" fill="#ED1F24"/>
<path id="Vector_2" d="M7.59827 12.3475L12.5345 9.49744L7.59827 6.6474V12.3475Z" fill="white"/>
</g>
</g>
<defs>
<clipPath id="clip0_1_6527">
<rect width="19" height="19" fill="white"/>
</clipPath>
</defs>
</svg>
