<svg width="23" height="23" viewBox="0 0 23 23" fill="none" xmlns="http://www.w3.org/2000/svg">
<g id="iconfinder_calendar_115762 1" clip-path="url(#clip0_1_11230)">
<g id="calendar 1">
<path id="Vector" d="M21.0838 2.15625H17.9688V0.71875C17.9688 0.321281 17.6475 0 17.25 0C16.8525 0 16.5312 0.321281 16.5312 0.71875V2.15625H12.2188V0.71875C12.2188 0.321281 11.8968 0 11.5 0C11.1032 0 10.7812 0.321281 10.7812 0.71875V2.15625H6.46875V0.71875C6.46875 0.321281 6.14675 0 5.75 0C5.35325 0 5.03125 0.321281 5.03125 0.71875V2.15625H1.91691C0.858187 2.15625 0 3.01372 0 4.07244V21.0831C0 22.1418 0.858187 23 1.91691 23H21.0838C22.1425 23 23 22.1418 23 21.0831V4.07244C23 3.01372 22.1425 2.15625 21.0838 2.15625ZM21.5625 21.0831C21.5625 21.3476 21.3476 21.5625 21.0838 21.5625H1.91691C1.65241 21.5625 1.4375 21.3476 1.4375 21.0831V4.07244C1.4375 3.80866 1.65241 3.59375 1.91691 3.59375H5.03125V5.03125C5.03125 5.42872 5.35325 5.75 5.75 5.75C6.14675 5.75 6.46875 5.42872 6.46875 5.03125V3.59375H10.7812V5.03125C10.7812 5.42872 11.1032 5.75 11.5 5.75C11.8968 5.75 12.2188 5.42872 12.2188 5.03125V3.59375H16.5312V5.03125C16.5312 5.42872 16.8525 5.75 17.25 5.75C17.6475 5.75 17.9688 5.42872 17.9688 5.03125V3.59375H21.0838C21.3476 3.59375 21.5625 3.80866 21.5625 4.07244V21.0831Z" fill="#333332"/>
<path id="Vector_2" d="M7.90625 8.625H5.03125V10.7812H7.90625V8.625Z" fill="#333332"/>
<path id="Vector_3" d="M7.90625 12.2188H5.03125V14.375H7.90625V12.2188Z" fill="#333332"/>
<path id="Vector_4" d="M7.90625 15.8125H5.03125V17.9688H7.90625V15.8125Z" fill="#333332"/>
<path id="Vector_5" d="M12.9375 15.8125H10.0625V17.9688H12.9375V15.8125Z" fill="#333332"/>
<path id="Vector_6" d="M12.9375 12.2188H10.0625V14.375H12.9375V12.2188Z" fill="#333332"/>
<path id="Vector_7" d="M12.9375 8.625H10.0625V10.7812H12.9375V8.625Z" fill="#333332"/>
<path id="Vector_8" d="M17.9688 15.8125H15.0938V17.9688H17.9688V15.8125Z" fill="#333332"/>
<path id="Vector_9" d="M17.9688 12.2188H15.0938V14.375H17.9688V12.2188Z" fill="#333332"/>
<path id="Vector_10" d="M17.9688 8.625H15.0938V10.7812H17.9688V8.625Z" fill="#333332"/>
</g>
</g>
<defs>
<clipPath id="clip0_1_11230">
<rect width="23" height="23" fill="white"/>
</clipPath>
</defs>
</svg>
